<svg version="1.1" xmlns="http://www.w3.org/2000/svg" viewBox="0 0 2182.6171875 1209.798177083333" width="6547.8515625" height="3629.394531249999" filter="invert(93%) hue-rotate(180deg)">
  <!-- svg-source:excalidraw -->
  
  <defs>
    <style class="style-fonts">
      @font-face {
        font-family: "Virgil";
        src: url("https://excalidraw.com/Virgil.woff2");
      }
      @font-face {
        font-family: "Cascadia";
        src: url("https://excalidraw.com/Cascadia.woff2");
      }
      @font-face {
        font-family: "Assistant";
        src: url("https://app.excalidraw.com//dist/excalidraw-assets/Assistant-Regular.woff2");
      }
    </style>
    
  </defs>
  <rect x="0" y="0" width="2182.6171875" height="1209.798177083333" fill="#f5faff"></rect><g stroke-linecap="round" transform="translate(1471.4202008928569 546.3420758928571) rotate(0 337.4453125 61.25000000000003)"><path d="M0 0 C208.78 0.57, 418.15 0.75, 674.89 0 M0 0 C148.44 -2.42, 296.57 -2.14, 674.89 0 M674.89 0 C676.21 47.91, 675.38 92.63, 674.89 122.5 M674.89 0 C675.19 28.4, 673.63 58.52, 674.89 122.5 M674.89 122.5 C515.45 122.96, 355.64 123.47, 0 122.5 M674.89 122.5 C516.3 122.12, 357.32 121.74, 0 122.5 M0 122.5 C-1.05 85.79, -0.69 47.25, 0 0 M0 122.5 C-0.9 81.76, -0.07 39.98, 0 0" stroke="#1e1e1e" stroke-width="2" fill="none"></path></g><g transform="translate(1671.5556531633647 551.3420758928571) rotate(0 137.3098602294922 12.5)"><text x="137.3098602294922" y="17.52" font-family="Virgil, Segoe UI Emoji" font-size="20px" fill="#1e1e1e" text-anchor="middle" style="white-space: pre;" direction="ltr" dominant-baseline="alphabetic">Subscription: Infrastructure</text></g><g stroke-linecap="round" transform="translate(755.3268229166662 125.45572916666669) rotate(0 336.890625 522.5)"><path d="M0 0 C173.78 1.52, 347.09 1.36, 673.78 0 M0 0 C254.83 2.07, 510.03 2.02, 673.78 0 M673.78 0 C677.28 309.47, 676.49 618.23, 673.78 1045 M673.78 0 C676.56 355.47, 676.64 710.24, 673.78 1045 M673.78 1045 C442.95 1042.48, 211.31 1041.93, 0 1045 M673.78 1045 C482.96 1045.26, 292.71 1045.75, 0 1045 M0 1045 C0.93 730.32, 1.29 415.39, 0 0 M0 1045 C2.3 771.89, 2.09 498.46, 0 0" stroke="#1e1e1e" stroke-width="2" fill="none"></path></g><g transform="translate(978.0275599161779 130.45572916666669) rotate(0 114.18988800048828 12.5)"><text x="114.18988800048828" y="17.52" font-family="Virgil, Segoe UI Emoji" font-size="20px" fill="#1e1e1e" text-anchor="middle" style="white-space: pre;" direction="ltr" dominant-baseline="alphabetic">Subscription: Accounting</text></g><g stroke-linecap="round" transform="translate(33.006510416666174 125.45572916666669) rotate(0 336.16015625 522.5)"><path d="M0 0 C153.57 0.73, 309.05 1.57, 672.32 0 M0 0 C149.73 0.08, 298.84 0.46, 672.32 0 M672.32 0 C673.29 410.4, 674.12 821.98, 672.32 1045 M672.32 0 C668.65 261.83, 669.08 524.02, 672.32 1045 M672.32 1045 C528.52 1043.66, 385.63 1044.52, 0 1045 M672.32 1045 C456.65 1043.18, 240.9 1042.89, 0 1045 M0 1045 C0.53 667.33, -0.1 288.76, 0 0 M0 1045 C-1.39 642.59, -1.58 239.53, 0 0" stroke="#1e1e1e" stroke-width="2" fill="none"></path></g><g transform="translate(265.9067789713537 130.45572916666669) rotate(0 103.2598876953125 12.5)"><text x="103.2598876953125" y="17.52" font-family="Virgil, Segoe UI Emoji" font-size="20px" fill="#1e1e1e" text-anchor="middle" style="white-space: pre;" direction="ltr" dominant-baseline="alphabetic">Subscription: Security</text></g><g stroke-linecap="round" transform="translate(58.38411458333292 365.8333333333333) rotate(0 153.96875 26.25)"><path d="M0 0 C70.18 -0.9, 142.51 0.29, 307.94 0 M0 0 C87.47 -1.45, 173.79 -2.17, 307.94 0 M307.94 0 C307.16 12.2, 309.6 26.4, 307.94 52.5 M307.94 0 C307.29 14.44, 307.93 27.85, 307.94 52.5 M307.94 52.5 C243.94 51.9, 178.26 53, 0 52.5 M307.94 52.5 C201.27 51.95, 93.95 52.27, 0 52.5 M0 52.5 C1.91 35.75, 1.55 17.33, 0 0 M0 52.5 C-0.06 33.45, 0.89 15.85, 0 0" stroke="#1e1e1e" stroke-width="2" fill="none"></path></g><g transform="translate(85.73296864827432 379.5833333333333) rotate(0 126.6198959350586 12.5)"><text x="126.6198959350586" y="17.52" font-family="Virgil, Segoe UI Emoji" font-size="20px" fill="#1e1e1e" text-anchor="middle" style="white-space: pre;" direction="ltr" dominant-baseline="alphabetic">Resource Group: RG-Sec-1</text></g><g stroke-linecap="round" transform="translate(58.006510416666174 877.9557291666666) rotate(0 153.96875 26.25)"><path d="M0 0 C103.47 1.24, 206.84 0.09, 307.94 0 M0 0 C116.28 -1.25, 231.92 -0.5, 307.94 0 M307.94 0 C309.13 18.39, 307.11 40.17, 307.94 52.5 M307.94 0 C307.25 16.77, 306.57 34.67, 307.94 52.5 M307.94 52.5 C209.45 51.16, 113.8 51.04, 0 52.5 M307.94 52.5 C222.92 52.67, 137.67 52.11, 0 52.5 M0 52.5 C0.9 39.06, 0.68 25.07, 0 0 M0 52.5 C0.75 40.03, 0.44 25.98, 0 0" stroke="#1e1e1e" stroke-width="2" fill="none"></path></g><g transform="translate(80.94536844889274 891.7057291666666) rotate(0 131.02989196777344 12.5)"><text x="131.02989196777344" y="17.52" font-family="Virgil, Segoe UI Emoji" font-size="20px" fill="#1e1e1e" text-anchor="middle" style="white-space: pre;" direction="ltr" dominant-baseline="alphabetic">Resource Group: RG-Sec-2</text></g><g stroke-linecap="round" transform="translate(422.4986979166662 160.45572916666669) rotate(0 125.63671875 26.25)"><path d="M0 0 C73.38 -1.62, 148.6 -0.04, 251.27 0 M0 0 C83.98 1.64, 169.15 0.91, 251.27 0 M251.27 0 C251.08 12.32, 252.29 21.18, 251.27 52.5 M251.27 0 C250.24 16.55, 251.32 33.66, 251.27 52.5 M251.27 52.5 C193.39 52.72, 133.58 53.7, 0 52.5 M251.27 52.5 C177.41 53, 102.61 54, 0 52.5 M0 52.5 C0.77 33.73, -1.31 16.87, 0 0 M0 52.5 C-0.06 38.53, 0.47 24.86, 0 0" stroke="#1e1e1e" stroke-width="2" fill="none"></path></g><g transform="translate(451.2654825846349 174.20572916666669) rotate(0 96.86993408203125 12.5)"><text x="96.86993408203125" y="17.52" font-family="Virgil, Segoe UI Emoji" font-size="20px" fill="#1e1e1e" text-anchor="middle" style="white-space: pre;" direction="ltr" dominant-baseline="alphabetic">Virtual Machine: VM1</text></g><g stroke-linecap="round" transform="translate(422.4986979166662 262.9557291666667) rotate(0 125.63671875 26.25)"><path d="M0 0 C95.72 1.6, 189.51 0.51, 251.27 0 M0 0 C59.88 -1.22, 117.87 -0.22, 251.27 0 M251.27 0 C251.76 10.69, 251.5 24.39, 251.27 52.5 M251.27 0 C250.96 12.55, 250.13 23.93, 251.27 52.5 M251.27 52.5 C173.07 53.53, 95.53 53.04, 0 52.5 M251.27 52.5 C165.53 52.41, 80.88 52.26, 0 52.5 M0 52.5 C-1.25 37, -0.99 24.25, 0 0 M0 52.5 C0.63 32.96, -0.97 13, 0 0" stroke="#1e1e1e" stroke-width="2" fill="none"></path></g><g transform="translate(446.8554865519201 276.7057291666667) rotate(0 101.2799301147461 12.5)"><text x="101.2799301147461" y="17.52" font-family="Virgil, Segoe UI Emoji" font-size="20px" fill="#1e1e1e" text-anchor="middle" style="white-space: pre;" direction="ltr" dominant-baseline="alphabetic">Virtual Machine: VM2</text></g><g stroke-linecap="round" transform="translate(422.4986979166662 365.4557291666667) rotate(0 125.63671875 26.25)"><path d="M0 0 C74.94 -1.48, 147.68 -2.5, 251.27 0 M0 0 C84.74 1.6, 170.29 0.78, 251.27 0 M251.27 0 C251.81 17.54, 250.14 34.17, 251.27 52.5 M251.27 0 C250.69 14.1, 251.46 30.17, 251.27 52.5 M251.27 52.5 C175.47 54.28, 100.47 54.27, 0 52.5 M251.27 52.5 C185.79 54.79, 119.63 54.7, 0 52.5 M0 52.5 C-0.45 41.43, 1.77 28.7, 0 0 M0 52.5 C-1.25 37.01, -1.11 21.41, 0 0" stroke="#1e1e1e" stroke-width="2" fill="none"></path></g><g transform="translate(447.16548411051383 379.2057291666667) rotate(0 100.96993255615234 12.5)"><text x="100.96993255615234" y="17.52" font-family="Virgil, Segoe UI Emoji" font-size="20px" fill="#1e1e1e" text-anchor="middle" style="white-space: pre;" direction="ltr" dominant-baseline="alphabetic">Virtual Machine: VM3</text></g><g stroke-linecap="round" transform="translate(422.4986979166662 467.9557291666667) rotate(0 125.63671875 26.25)"><path d="M0 0 C97.71 -1.13, 198.15 0.68, 251.27 0 M0 0 C62.47 -1.72, 126.32 -1.23, 251.27 0 M251.27 0 C250.07 9.36, 251.03 22.7, 251.27 52.5 M251.27 0 C251.02 17.32, 250.94 33.46, 251.27 52.5 M251.27 52.5 C161.05 53.65, 68.91 52.3, 0 52.5 M251.27 52.5 C154.29 54.34, 57.08 53.49, 0 52.5 M0 52.5 C1.7 39.41, 0.08 26.93, 0 0 M0 52.5 C-0.26 35.56, 1.27 18.92, 0 0" stroke="#1e1e1e" stroke-width="2" fill="none"></path></g><g transform="translate(447.5754877726232 481.7057291666667) rotate(0 100.55992889404297 12.5)"><text x="100.55992889404297" y="17.52" font-family="Virgil, Segoe UI Emoji" font-size="20px" fill="#1e1e1e" text-anchor="middle" style="white-space: pre;" direction="ltr" dominant-baseline="alphabetic">Virtual Machine: VM4</text></g><g stroke-linecap="round" transform="translate(422.4986979166662 570.4557291666667) rotate(0 125.63671875 26.24999999999997)"><path d="M0 0 C82.57 1.96, 163.04 -0.58, 251.27 0 M0 0 C94.02 0.84, 186.64 0.74, 251.27 0 M251.27 0 C250.59 14.88, 251.35 27.78, 251.27 52.5 M251.27 0 C251.34 11.59, 251.94 23.59, 251.27 52.5 M251.27 52.5 C167.31 52.29, 85.99 53.64, 0 52.5 M251.27 52.5 C158.41 53.26, 66.33 53.37, 0 52.5 M0 52.5 C-0.51 35.47, -0.01 13.74, 0 0 M0 52.5 C1.19 36.84, -0.61 22.11, 0 0" stroke="#1e1e1e" stroke-width="2" fill="none"></path></g><g transform="translate(447.79548899332633 584.2057291666667) rotate(0 100.33992767333984 12.499999999999972)"><text x="100.33992767333984" y="17.52" font-family="Virgil, Segoe UI Emoji" font-size="20px" fill="#1e1e1e" text-anchor="middle" style="white-space: pre;" direction="ltr" dominant-baseline="alphabetic">Virtual Machine: VM5</text></g><g stroke-linecap="round" transform="translate(422.4986979166662 672.9557291666666) rotate(0 125.63671875 26.25)"><path d="M0 0 C65.41 -2.85, 133.62 -2.55, 251.27 0 M0 0 C67.5 -0.5, 136.23 -1.18, 251.27 0 M251.27 0 C251.6 9.63, 249.69 22.12, 251.27 52.5 M251.27 0 C251.9 18.21, 251.6 36.92, 251.27 52.5 M251.27 52.5 C169.5 51.95, 86.05 51.1, 0 52.5 M251.27 52.5 C161.41 51.23, 72.66 52.14, 0 52.5 M0 52.5 C0.42 33.88, -0.01 17.27, 0 0 M0 52.5 C-1.41 38.49, -0.67 23.59, 0 0" stroke="#1e1e1e" stroke-width="2" fill="none"></path></g><g transform="translate(447.5754877726232 686.7057291666666) rotate(0 100.55992889404297 12.5)"><text x="100.55992889404297" y="17.52" font-family="Virgil, Segoe UI Emoji" font-size="20px" fill="#1e1e1e" text-anchor="middle" style="white-space: pre;" direction="ltr" dominant-baseline="alphabetic">Virtual Machine: VM6</text></g><g stroke-linecap="round" transform="translate(422.4986979166662 775.4557291666666) rotate(0 125.63671875 26.25)"><path d="M0 0 C95.26 0.64, 187.67 2.37, 251.27 0 M0 0 C83.2 -0.91, 166.02 -0.52, 251.27 0 M251.27 0 C249.89 16.8, 252.34 33.24, 251.27 52.5 M251.27 0 C251.91 14.93, 251.91 28.68, 251.27 52.5 M251.27 52.5 C190.04 52.8, 127.52 52.01, 0 52.5 M251.27 52.5 C188.37 52.4, 124.79 51.74, 0 52.5 M0 52.5 C-0.14 31.41, -0.42 14.8, 0 0 M0 52.5 C0.27 37.72, -0.12 21.92, 0 0" stroke="#1e1e1e" stroke-width="2" fill="none"></path></g><g transform="translate(448.5954844156896 789.2057291666666) rotate(0 99.53993225097656 12.5)"><text x="99.53993225097656" y="17.52" font-family="Virgil, Segoe UI Emoji" font-size="20px" fill="#1e1e1e" text-anchor="middle" style="white-space: pre;" direction="ltr" dominant-baseline="alphabetic">Virtual Machine: VM7</text></g><g stroke-linecap="round" transform="translate(422.4986979166662 877.9557291666666) rotate(0 125.63671875 26.25)"><path d="M0 0 C54.39 1.99, 110.23 -0.12, 251.27 0 M0 0 C79.31 1.19, 160.24 1.5, 251.27 0 M251.27 0 C251.84 12.28, 250.42 25.74, 251.27 52.5 M251.27 0 C251.75 15.1, 250.92 31.83, 251.27 52.5 M251.27 52.5 C168.95 50.95, 84.02 51.38, 0 52.5 M251.27 52.5 C184.84 54.01, 118.66 54.22, 0 52.5 M0 52.5 C-0.31 42.89, -0.01 28.06, 0 0 M0 52.5 C-0.51 32.81, -0.33 10.92, 0 0" stroke="#1e1e1e" stroke-width="2" fill="none"></path></g><g transform="translate(446.3254877726232 891.7057291666666) rotate(0 101.80992889404297 12.5)"><text x="101.80992889404297" y="17.52" font-family="Virgil, Segoe UI Emoji" font-size="20px" fill="#1e1e1e" text-anchor="middle" style="white-space: pre;" direction="ltr" dominant-baseline="alphabetic">Virtual Machine: VM8</text></g><g stroke-linecap="round" transform="translate(422.4986979166662 980.4557291666666) rotate(0 125.63671875 26.25)"><path d="M0 0 C59.98 -2.29, 119.22 -1.25, 251.27 0 M0 0 C59.2 0.52, 117.6 -0.26, 251.27 0 M251.27 0 C251.06 17.49, 251.42 33.16, 251.27 52.5 M251.27 0 C250.92 18.68, 251.75 36.33, 251.27 52.5 M251.27 52.5 C180.37 50.4, 110.47 51.94, 0 52.5 M251.27 52.5 C157.41 52.55, 61.63 52.37, 0 52.5 M0 52.5 C0.06 38.54, 1.89 28.01, 0 0 M0 52.5 C-0.12 31.36, -0.38 11.59, 0 0" stroke="#1e1e1e" stroke-width="2" fill="none"></path></g><g transform="translate(447.88548533121696 994.2057291666666) rotate(0 100.24993133544922 12.5)"><text x="100.24993133544922" y="17.52" font-family="Virgil, Segoe UI Emoji" font-size="20px" fill="#1e1e1e" text-anchor="middle" style="white-space: pre;" direction="ltr" dominant-baseline="alphabetic">Virtual Machine: VM9</text></g><g stroke-linecap="round" transform="translate(415.9440104166662 1082.9557291666665) rotate(0 132.19140625 26.25)"><path d="M0 0 C90.93 1.46, 180.24 0.38, 264.38 0 M0 0 C74.24 -1.03, 149.62 -0.06, 264.38 0 M264.38 0 C264.16 16.45, 265.05 32.26, 264.38 52.5 M264.38 0 C264.42 14.41, 263.9 28.03, 264.38 52.5 M264.38 52.5 C202.79 52.45, 143.51 51.96, 0 52.5 M264.38 52.5 C185.82 52.9, 108.04 52.79, 0 52.5 M0 52.5 C1.81 31.99, 1.82 11.17, 0 0 M0 52.5 C-0.48 32.72, 0.01 13.41, 0 0" stroke="#1e1e1e" stroke-width="2" fill="none"></path></g><g transform="translate(444.38548533121696 1096.7057291666665) rotate(0 103.74993133544922 12.5)"><text x="103.74993133544922" y="17.52" font-family="Virgil, Segoe UI Emoji" font-size="20px" fill="#1e1e1e" text-anchor="middle" style="white-space: pre;" direction="ltr" dominant-baseline="alphabetic">Virtual Machine: VM10</text></g><g stroke-linecap="round" transform="translate(780.3268229166662 365.4557291666667) rotate(0 154.69921875 26.25)"><path d="M0 0 C65 -0.8, 131.62 0.74, 309.4 0 M0 0 C99.34 2.01, 198.55 1.5, 309.4 0 M309.4 0 C310.16 19.61, 308.6 36.93, 309.4 52.5 M309.4 0 C309.35 20.79, 308.87 39.98, 309.4 52.5 M309.4 52.5 C230.75 53.99, 149.84 54.74, 0 52.5 M309.4 52.5 C209.98 52.34, 112.17 52.45, 0 52.5 M0 52.5 C1.35 40.62, 1.12 30.37, 0 0 M0 52.5 C0.15 40.74, 0.66 27.23, 0 0" stroke="#1e1e1e" stroke-width="2" fill="none"></path></g><g transform="translate(808.3761393229162 379.2057291666667) rotate(0 126.64990234375 12.5)"><text x="126.64990234375" y="17.52" font-family="Virgil, Segoe UI Emoji" font-size="20px" fill="#1e1e1e" text-anchor="middle" style="white-space: pre;" direction="ltr" dominant-baseline="alphabetic">Resource Group: RG-Acc-1</text></g><g stroke-linecap="round" transform="translate(780.3268229166662 877.9557291666666) rotate(0 154.69921875 26.25)"><path d="M0 0 C85.52 2.26, 171.83 1.07, 309.4 0 M0 0 C69.66 -1.23, 139.74 -1.1, 309.4 0 M309.4 0 C308.84 16.37, 311.31 35.45, 309.4 52.5 M309.4 0 C308.6 18.8, 308.87 38.22, 309.4 52.5 M309.4 52.5 C200.18 54.06, 91.4 51.75, 0 52.5 M309.4 52.5 C217.78 52.14, 124.28 52.79, 0 52.5 M0 52.5 C1.11 37.09, -1.71 22.09, 0 0 M0 52.5 C0.41 35.77, -0.77 19.61, 0 0" stroke="#1e1e1e" stroke-width="2" fill="none"></path></g><g transform="translate(803.9661356608068 891.7057291666666) rotate(0 131.05990600585938 12.5)"><text x="131.05990600585938" y="17.52" font-family="Virgil, Segoe UI Emoji" font-size="20px" fill="#1e1e1e" text-anchor="middle" style="white-space: pre;" direction="ltr" dominant-baseline="alphabetic">Resource Group: RG-Acc-2</text></g><g stroke-linecap="round" transform="translate(1139.725260416666 160.45572916666669) rotate(0 132.19140625 26.25)"><path d="M0 0 C55.54 -1.4, 109.23 -0.19, 264.38 0 M0 0 C92.45 0.45, 184.17 0.8, 264.38 0 M264.38 0 C265.89 18, 265.53 34.33, 264.38 52.5 M264.38 0 C263.6 18.36, 264.55 38.17, 264.38 52.5 M264.38 52.5 C179.59 52.7, 94.14 52.93, 0 52.5 M264.38 52.5 C188.52 53.19, 114.03 53.2, 0 52.5 M0 52.5 C-1.65 38.65, -0.14 27.22, 0 0 M0 52.5 C-1.04 32.85, -0.72 12.72, 0 0" stroke="#1e1e1e" stroke-width="2" fill="none"></path></g><g transform="translate(1172.3367335001622 174.20572916666669) rotate(0 99.5799331665039 12.5)"><text x="99.5799331665039" y="17.52" font-family="Virgil, Segoe UI Emoji" font-size="20px" fill="#1e1e1e" text-anchor="middle" style="white-space: pre;" direction="ltr" dominant-baseline="alphabetic">Virtual Machine: VM11</text></g><g stroke-linecap="round" transform="translate(1139.725260416666 262.9557291666667) rotate(0 132.19140625 26.25)"><path d="M0 0 C82.45 1.55, 168.02 1.42, 264.38 0 M0 0 C73.44 0.42, 146.62 -0.2, 264.38 0 M264.38 0 C266.18 12.6, 265.96 24.67, 264.38 52.5 M264.38 0 C264.69 13.99, 264.38 26.41, 264.38 52.5 M264.38 52.5 C165.32 49.57, 66.08 51.99, 0 52.5 M264.38 52.5 C185.18 55.11, 105.86 55.02, 0 52.5 M0 52.5 C0.6 38.7, 1.84 26.39, 0 0 M0 52.5 C-0.1 37.7, 0.73 22.66, 0 0" stroke="#1e1e1e" stroke-width="2" fill="none"></path></g><g transform="translate(1167.9267374674473 276.7057291666667) rotate(0 103.98992919921875 12.5)"><text x="103.98992919921875" y="17.52" font-family="Virgil, Segoe UI Emoji" font-size="20px" fill="#1e1e1e" text-anchor="middle" style="white-space: pre;" direction="ltr" dominant-baseline="alphabetic">Virtual Machine: VM12</text></g><g stroke-linecap="round" transform="translate(1139.725260416666 365.4557291666667) rotate(0 132.19140625 26.25)"><path d="M0 0 C62.48 -0.18, 123.07 0.77, 264.38 0 M0 0 C78.23 -1.13, 155.56 -0.15, 264.38 0 M264.38 0 C265.86 16.01, 263.78 33.94, 264.38 52.5 M264.38 0 C264.88 13.86, 265.41 28.03, 264.38 52.5 M264.38 52.5 C207.52 52.3, 151.15 49.45, 0 52.5 M264.38 52.5 C160.74 55.04, 57.74 53.92, 0 52.5 M0 52.5 C1.44 41.09, -0.56 26.75, 0 0 M0 52.5 C0.56 35.45, 0.63 20.31, 0 0" stroke="#1e1e1e" stroke-width="2" fill="none"></path></g><g transform="translate(1168.236735026041 379.2057291666667) rotate(0 103.679931640625 12.5)"><text x="103.679931640625" y="17.52" font-family="Virgil, Segoe UI Emoji" font-size="20px" fill="#1e1e1e" text-anchor="middle" style="white-space: pre;" direction="ltr" dominant-baseline="alphabetic">Virtual Machine: VM13</text></g><g stroke-linecap="round" transform="translate(1139.725260416666 467.9557291666667) rotate(0 132.19140625 26.25)"><path d="M0 0 C81.52 0.95, 163.7 0.47, 264.38 0 M0 0 C89.36 1.48, 179.8 1.34, 264.38 0 M264.38 0 C263.72 13.8, 263.98 30.36, 264.38 52.5 M264.38 0 C265.24 19.93, 263.64 39.46, 264.38 52.5 M264.38 52.5 C203.92 52.66, 144.91 53.83, 0 52.5 M264.38 52.5 C160.66 53.68, 57.1 54.28, 0 52.5 M0 52.5 C-0.89 36.17, -0.25 22.26, 0 0 M0 52.5 C0.19 38.6, 0.85 23.75, 0 0" stroke="#1e1e1e" stroke-width="2" fill="none"></path></g><g transform="translate(1168.6467386881504 481.7057291666667) rotate(0 103.26992797851562 12.5)"><text x="103.26992797851562" y="17.52" font-family="Virgil, Segoe UI Emoji" font-size="20px" fill="#1e1e1e" text-anchor="middle" style="white-space: pre;" direction="ltr" dominant-baseline="alphabetic">Virtual Machine: VM14</text></g><g stroke-linecap="round" transform="translate(1139.725260416666 570.4557291666667) rotate(0 132.19140625 26.24999999999997)"><path d="M0 0 C79.6 -0.79, 159.98 -0.8, 264.38 0 M0 0 C69.41 -1.25, 138.17 -1.34, 264.38 0 M264.38 0 C263.43 13.18, 265.65 24.68, 264.38 52.5 M264.38 0 C263.92 15.45, 264.06 30.77, 264.38 52.5 M264.38 52.5 C164.94 50.07, 64.09 49.44, 0 52.5 M264.38 52.5 C163.48 51.32, 63.54 51.81, 0 52.5 M0 52.5 C0.28 34.11, -0.54 18.51, 0 0 M0 52.5 C0.81 40.78, -0.05 31.04, 0 0" stroke="#1e1e1e" stroke-width="2" fill="none"></path></g><g transform="translate(1168.8667399088536 584.2057291666667) rotate(0 103.0499267578125 12.499999999999972)"><text x="103.0499267578125" y="17.52" font-family="Virgil, Segoe UI Emoji" font-size="20px" fill="#1e1e1e" text-anchor="middle" style="white-space: pre;" direction="ltr" dominant-baseline="alphabetic">Virtual Machine: VM15</text></g><g stroke-linecap="round" transform="translate(1139.725260416666 672.9557291666666) rotate(0 132.19140625 26.25)"><path d="M0 0 C96.24 -0.17, 190.61 -1.49, 264.38 0 M0 0 C101.7 -0.96, 203.18 -1.79, 264.38 0 M264.38 0 C265.72 13.97, 264.09 28.55, 264.38 52.5 M264.38 0 C263.22 16.62, 264.75 33.55, 264.38 52.5 M264.38 52.5 C212.41 50.99, 158.81 51.27, 0 52.5 M264.38 52.5 C201.18 53.39, 138.56 52.6, 0 52.5 M0 52.5 C-0.7 41.95, -1.86 30.99, 0 0 M0 52.5 C-0.39 36.7, -1.44 20.65, 0 0" stroke="#1e1e1e" stroke-width="2" fill="none"></path></g><g transform="translate(1168.6467386881504 686.7057291666666) rotate(0 103.26992797851562 12.5)"><text x="103.26992797851562" y="17.52" font-family="Virgil, Segoe UI Emoji" font-size="20px" fill="#1e1e1e" text-anchor="middle" style="white-space: pre;" direction="ltr" dominant-baseline="alphabetic">Virtual Machine: VM16</text></g><g stroke-linecap="round" transform="translate(1139.725260416666 775.4557291666666) rotate(0 132.19140625 26.25)"><path d="M0 0 C87.08 -1.47, 176.72 -0.15, 264.38 0 M0 0 C96.57 -1.56, 193.89 -1.46, 264.38 0 M264.38 0 C264.67 20.01, 265.18 35.32, 264.38 52.5 M264.38 0 C264.82 15.63, 263.03 32.19, 264.38 52.5 M264.38 52.5 C192.67 50.44, 117.46 50.03, 0 52.5 M264.38 52.5 C181.61 53.89, 97.68 54.15, 0 52.5 M0 52.5 C-1.64 40.38, 0.38 28.91, 0 0 M0 52.5 C-0.99 41.38, 0.45 29.28, 0 0" stroke="#1e1e1e" stroke-width="2" fill="none"></path></g><g transform="translate(1169.6667353312168 789.2057291666666) rotate(0 102.24993133544922 12.5)"><text x="102.24993133544922" y="17.52" font-family="Virgil, Segoe UI Emoji" font-size="20px" fill="#1e1e1e" text-anchor="middle" style="white-space: pre;" direction="ltr" dominant-baseline="alphabetic">Virtual Machine: VM17</text></g><g stroke-linecap="round" transform="translate(1139.725260416666 877.9557291666666) rotate(0 132.19140625 26.25)"><path d="M0 0 C88.85 1.58, 176.06 0.76, 264.38 0 M0 0 C93.86 0.73, 188.81 1.61, 264.38 0 M264.38 0 C264.75 15.18, 264.31 32.37, 264.38 52.5 M264.38 0 C263.83 15.81, 264.57 30.73, 264.38 52.5 M264.38 52.5 C200.89 50.4, 139.57 51.18, 0 52.5 M264.38 52.5 C164.36 52.05, 65.3 51.72, 0 52.5 M0 52.5 C0.68 37.33, -1.01 18.46, 0 0 M0 52.5 C1 34.64, -0.13 15.21, 0 0" stroke="#1e1e1e" stroke-width="2" fill="none"></path></g><g transform="translate(1167.3967386881504 891.7057291666666) rotate(0 104.51992797851562 12.5)"><text x="104.51992797851562" y="17.52" font-family="Virgil, Segoe UI Emoji" font-size="20px" fill="#1e1e1e" text-anchor="middle" style="white-space: pre;" direction="ltr" dominant-baseline="alphabetic">Virtual Machine: VM18</text></g><g stroke-linecap="round" transform="translate(1139.725260416666 980.4557291666666) rotate(0 132.19140625 26.25)"><path d="M0 0 C66.65 -0.99, 132.07 -1.75, 264.38 0 M0 0 C67.05 1.33, 133.44 0.69, 264.38 0 M264.38 0 C264.45 18.24, 264.17 40.96, 264.38 52.5 M264.38 0 C263.63 16.6, 263.23 32.17, 264.38 52.5 M264.38 52.5 C197.41 50.64, 131.19 51.45, 0 52.5 M264.38 52.5 C191.08 52.39, 118.89 51.94, 0 52.5 M0 52.5 C-1.54 35.27, 0.93 15.68, 0 0 M0 52.5 C-0.89 32.29, 0.48 14.21, 0 0" stroke="#1e1e1e" stroke-width="2" fill="none"></path></g><g transform="translate(1168.9567362467442 994.2057291666666) rotate(0 102.95993041992188 12.5)"><text x="102.95993041992188" y="17.52" font-family="Virgil, Segoe UI Emoji" font-size="20px" fill="#1e1e1e" text-anchor="middle" style="white-space: pre;" direction="ltr" dominant-baseline="alphabetic">Virtual Machine: VM19</text></g><g stroke-linecap="round" transform="translate(1139.725260416666 1082.9557291666665) rotate(0 132.19140625 26.25)"><path d="M0 0 C88.47 -0.66, 174.4 -0.23, 264.38 0 M0 0 C70.26 -1.63, 140.76 -1.44, 264.38 0 M264.38 0 C264.05 12.87, 264.35 20.52, 264.38 52.5 M264.38 0 C263.62 21.28, 263.8 40.35, 264.38 52.5 M264.38 52.5 C205.21 52.48, 143.26 50.61, 0 52.5 M264.38 52.5 C183.29 51.08, 102.04 51.88, 0 52.5 M0 52.5 C1.37 29.72, 1.85 11.67, 0 0 M0 52.5 C1.08 35.17, 1.12 15.84, 0 0" stroke="#1e1e1e" stroke-width="2" fill="none"></path></g><g transform="translate(1163.756739298502 1096.7057291666665) rotate(0 108.15992736816406 12.5)"><text x="108.15992736816406" y="17.52" font-family="Virgil, Segoe UI Emoji" font-size="20px" fill="#1e1e1e" text-anchor="middle" style="white-space: pre;" direction="ltr" dominant-baseline="alphabetic">Virtual Machine: VM20</text></g><g stroke-linecap="round" transform="translate(1496.4202008928569 581.3420758928571) rotate(0 161.3046875 26.25)"><path d="M0 0 C89.36 0.96, 179.56 2.29, 322.61 0 M0 0 C121.81 0.26, 241.98 0.11, 322.61 0 M322.61 0 C322.5 10.04, 324.33 23.53, 322.61 52.5 M322.61 0 C321.82 19.91, 321.56 41.19, 322.61 52.5 M322.61 52.5 C232.83 51.91, 143.84 52.36, 0 52.5 M322.61 52.5 C236.78 50.53, 151.19 49.94, 0 52.5 M0 52.5 C1.2 37.13, 0.68 18.44, 0 0 M0 52.5 C0.4 39.8, 0.23 28.35, 0 0" stroke="#1e1e1e" stroke-width="2" fill="none"></path></g><g transform="translate(1521.7249952043803 595.0920758928571) rotate(0 135.99989318847656 12.5)"><text x="135.99989318847656" y="17.52" font-family="Virgil, Segoe UI Emoji" font-size="20px" fill="#1e1e1e" text-anchor="middle" style="white-space: pre;" direction="ltr" dominant-baseline="alphabetic">Resource Group: RG-Infra-1</text></g><g stroke-linecap="round" transform="translate(1869.0295758928569 581.3420758928571) rotate(0 126.140625 26.25)"><path d="M0 0 C57.68 1.72, 117.73 1.22, 252.28 0 M0 0 C73.62 -0.42, 148.06 -0.53, 252.28 0 M252.28 0 C254.08 19.55, 254.09 38.79, 252.28 52.5 M252.28 0 C251.32 20.06, 251.81 40.6, 252.28 52.5 M252.28 52.5 C169.46 49.76, 85.86 51.11, 0 52.5 M252.28 52.5 C200.35 52.11, 146.91 53.11, 0 52.5 M0 52.5 C0.55 40.36, -1.64 32.2, 0 0 M0 52.5 C0.21 32.93, -1.16 12.01, 0 0" stroke="#1e1e1e" stroke-width="2" fill="none"></path></g><g transform="translate(1890.5402799333842 595.0920758928571) rotate(0 104.62992095947266 12.5)"><text x="104.62992095947266" y="17.52" font-family="Virgil, Segoe UI Emoji" font-size="20px" fill="#1e1e1e" text-anchor="middle" style="white-space: pre;" direction="ltr" dominant-baseline="alphabetic">Storage Account: SA1</text></g><g stroke-linecap="round"><g transform="translate(236.04829744941117 364.8333333333333) rotate(0 90.77558565999793 -95.22472046946449)"><path d="M0.63 0.91 C26.58 -28.72, 124.92 -148.39, 155.16 -178.19 C185.39 -207.99, 177.88 -177.9, 182.04 -177.89 M-0.49 0.34 C25.36 -29.05, 123.98 -147.22, 154.35 -176.69 C184.72 -206.15, 177.5 -176.39, 181.75 -176.45" stroke="#1e1e1e" stroke-width="2" fill="none"></path></g><g transform="translate(236.04829744941117 364.8333333333333) rotate(0 90.77558565999793 -95.22472046946449)"><path d="M173.29 -186.49 C176.43 -183.66, 177.54 -180.38, 181.75 -176.45 M173.29 -186.49 C175.44 -183.38, 179.15 -180.08, 181.75 -176.45" stroke="#1e1e1e" stroke-width="2" fill="none"></path></g><g transform="translate(236.04829744941117 364.8333333333333) rotate(0 90.77558565999793 -95.22472046946449)"><path d="M181.72 -189.58 C182.68 -185.91, 181.62 -181.83, 181.75 -176.45 M181.72 -189.58 C181.15 -185.49, 182.16 -181.19, 181.75 -176.45" stroke="#1e1e1e" stroke-width="2" fill="none"></path></g></g><mask></mask><g stroke-linecap="round"><g transform="translate(259.65750420413366 364.8333333333333) rotate(0 78.9026621331088 -41.13152182334832)"><path d="M0.26 -0.06 C22.19 -12.78, 106.14 -62.79, 132.18 -75.39 C158.22 -87.99, 152.43 -75.58, 156.51 -75.65 M-1.06 -1.14 C20.73 -14.33, 105.05 -65.19, 131.7 -77.39 C158.36 -89.59, 154.73 -74.78, 158.86 -74.35" stroke="#1e1e1e" stroke-width="2" fill="none"></path></g><g transform="translate(259.65750420413366 364.8333333333333) rotate(0 78.9026621331088 -41.13152182334832)"><path d="M147.49 -80.9 C151.48 -77.63, 155.82 -77.43, 158.86 -74.35 M147.49 -80.9 C151.37 -78.94, 153.58 -76.38, 158.86 -74.35" stroke="#1e1e1e" stroke-width="2" fill="none"></path></g><g transform="translate(259.65750420413366 364.8333333333333) rotate(0 78.9026621331088 -41.13152182334832)"><path d="M154.36 -86.68 C155.97 -81.36, 157.89 -79.12, 158.86 -74.35 M154.36 -86.68 C156.15 -83, 156.31 -78.73, 158.86 -74.35" stroke="#1e1e1e" stroke-width="2" fill="none"></path></g></g><mask></mask><g stroke-linecap="round"><g transform="translate(367.3216145833329 391.75567609365635) rotate(0 25.278203196335227 0.17466688804591968)"><path d="M0.41 0.11 C4.25 0.1, 14.97 -0.02, 23.15 -0.06 C31.33 -0.1, 44.96 -0.14, 49.48 -0.14 M-0.04 -0.31 C3.95 -0.22, 15.7 0.51, 24.14 0.63 C32.58 0.75, 46.18 0.45, 50.6 0.42" stroke="#1e1e1e" stroke-width="2" fill="none"></path></g><g transform="translate(367.3216145833329 391.75567609365635) rotate(0 25.278203196335227 0.17466688804591968)"><path d="M38.33 5.08 C42.41 2.97, 46.22 1.56, 50.6 0.42 M38.33 5.08 C41.47 4.05, 45.2 2.73, 50.6 0.42" stroke="#1e1e1e" stroke-width="2" fill="none"></path></g><g transform="translate(367.3216145833329 391.75567609365635) rotate(0 25.278203196335227 0.17466688804591968)"><path d="M38.2 -3.9 C42.32 -3.12, 46.17 -1.64, 50.6 0.42 M38.2 -3.9 C41.42 -2.38, 45.18 -1.15, 50.6 0.42" stroke="#1e1e1e" stroke-width="2" fill="none"></path></g></g><mask></mask><g stroke-linecap="round"><g transform="translate(260.00733093323583 419.3333333333333) rotate(0 78.56936242582738 40.42585791501955)"><path d="M-1.03 -0.02 C20.5 12.38, 103.55 62.2, 130.08 74.68 C156.61 87.16, 153.85 74.65, 158.17 74.86 M0.63 -1.08 C22.46 11.49, 106.13 63.24, 132.34 76.12 C158.56 88.99, 154.03 76.53, 157.92 76.17" stroke="#1e1e1e" stroke-width="2" fill="none"></path></g><g transform="translate(260.00733093323583 419.3333333333333) rotate(0 78.56936242582738 40.42585791501955)"><path d="M153.11 88.38 C154.86 82.91, 156.48 80.34, 157.92 76.17 M153.11 88.38 C154.51 85.29, 155.69 81.56, 157.92 76.17" stroke="#1e1e1e" stroke-width="2" fill="none"></path></g><g transform="translate(260.00733093323583 419.3333333333333) rotate(0 78.56936242582738 40.42585791501955)"><path d="M146.38 82.43 C150.66 79.25, 154.8 78.91, 157.92 76.17 M146.38 82.43 C149.73 81.05, 152.92 79.11, 157.92 76.17" stroke="#1e1e1e" stroke-width="2" fill="none"></path></g></g><mask></mask><g stroke-linecap="round"><g transform="translate(236.13575320745994 419.3333333333333) rotate(0 90.65398218111238 95.13531451972364)"><path d="M-0.86 -0.19 C25.28 29.37, 125.66 147.58, 155.79 177.36 C185.91 207.13, 175.72 178.27, 179.89 178.45 M0.89 -1.34 C27.05 28.43, 125.14 149.22, 155.35 178.89 C185.56 208.56, 177.91 177.08, 182.16 176.68" stroke="#1e1e1e" stroke-width="2" fill="none"></path></g><g transform="translate(236.13575320745994 419.3333333333333) rotate(0 90.65398218111238 95.13531451972364)"><path d="M182.77 189.79 C182.43 188.05, 182.5 182.89, 182.16 176.68 M182.77 189.79 C182.15 185.2, 182.03 179.16, 182.16 176.68" stroke="#1e1e1e" stroke-width="2" fill="none"></path></g><g transform="translate(236.13575320745994 419.3333333333333) rotate(0 90.65398218111238 95.13531451972364)"><path d="M174.2 187.11 C175.7 186.01, 177.6 181.42, 182.16 176.68 M174.2 187.11 C176.91 183.49, 180.14 178.5, 182.16 176.68" stroke="#1e1e1e" stroke-width="2" fill="none"></path></g></g><mask></mask><g stroke-linecap="round"><g transform="translate(235.39151041666616 877.9557291666666) rotate(0 90.52592738503031 -96.23961628400798)"><path d="M0.98 -0.01 C26.85 -29.59, 124.37 -148.06, 154.38 -177.67 C184.38 -207.28, 176.66 -177.64, 181.02 -177.66 M0.03 -1.07 C26.33 -30.94, 126.46 -149.5, 156.47 -179.22 C186.48 -208.95, 176.12 -179.32, 180.1 -179.43" stroke="#1e1e1e" stroke-width="2" fill="none"></path></g><g transform="translate(235.39151041666616 877.9557291666666) rotate(0 90.52592738503031 -96.23961628400798)"><path d="M173.25 -190.33 C174.78 -189.16, 177.53 -185.71, 180.1 -179.43 M173.25 -190.33 C175.56 -186.52, 178.08 -181.77, 180.1 -179.43" stroke="#1e1e1e" stroke-width="2" fill="none"></path></g><g transform="translate(235.39151041666616 877.9557291666666) rotate(0 90.52592738503031 -96.23961628400798)"><path d="M181.86 -192.18 C181.42 -190.52, 182.2 -186.65, 180.1 -179.43 M181.86 -192.18 C180.8 -187.58, 179.94 -182.11, 180.1 -179.43" stroke="#1e1e1e" stroke-width="2" fill="none"></path></g></g><mask></mask><g stroke-linecap="round"><g transform="translate(258.3085104166662 877.9557291666666) rotate(0 79.47300619008952 -40.757953147267585)"><path d="M-1.18 1.08 C20.72 -11.44, 105.88 -62.43, 132.35 -75.16 C158.82 -87.89, 153.38 -74.99, 157.63 -75.3 M0.41 0.6 C22.03 -12.23, 104.63 -63.75, 131.25 -76.71 C157.87 -89.67, 155.7 -77.21, 160.12 -77.14" stroke="#1e1e1e" stroke-width="2" fill="none"></path></g><g transform="translate(258.3085104166662 877.9557291666666) rotate(0 79.47300619008952 -40.757953147267585)"><path d="M147.81 -80.93 C153.67 -79.67, 158.38 -78.73, 160.12 -77.14 M147.81 -80.93 C152.01 -79.32, 156.99 -77.49, 160.12 -77.14" stroke="#1e1e1e" stroke-width="2" fill="none"></path></g><g transform="translate(258.3085104166662 877.9557291666666) rotate(0 79.47300619008952 -40.757953147267585)"><path d="M153.13 -87.95 C156.96 -84.07, 159.63 -80.45, 160.12 -77.14 M153.13 -87.95 C155.27 -83.71, 158.24 -79.21, 160.12 -77.14" stroke="#1e1e1e" stroke-width="2" fill="none"></path></g></g><mask></mask><g stroke-linecap="round"><g transform="translate(366.44451041666616 904.2057291666666) rotate(0 24.708118598952893 0.19522484252087224)"><path d="M-0.29 1.09 C3.86 1.07, 15.41 1.26, 23.74 0.95 C32.07 0.65, 45.43 -0.61, 49.7 -0.74 M1.76 0.62 C6.4 0.79, 18.23 -0.6, 26.05 -0.67 C33.86 -0.74, 44.79 -0.15, 48.65 0.19" stroke="#1e1e1e" stroke-width="2" fill="none"></path></g><g transform="translate(366.44451041666616 904.2057291666666) rotate(0 24.708118598952893 0.19522484252087224)"><path d="M36.28 3.76 C39.92 2.25, 42.27 1.76, 48.65 0.19 M36.28 3.76 C39.11 3.38, 42.39 1.88, 48.65 0.19" stroke="#1e1e1e" stroke-width="2" fill="none"></path></g><g transform="translate(366.44451041666616 904.2057291666666) rotate(0 24.708118598952893 0.19522484252087224)"><path d="M36.88 -5.03 C40.47 -4.76, 42.7 -3.48, 48.65 0.19 M36.88 -5.03 C39.5 -3.31, 42.64 -2.71, 48.65 0.19" stroke="#1e1e1e" stroke-width="2" fill="none"></path></g></g><mask></mask><g stroke-linecap="round"><g transform="translate(258.3085104166662 930.4557291666666) rotate(0 79.60527062389068 41.59291073558853)"><path d="M-0.76 0.95 C21.3 13.36, 105.7 62.93, 132.09 75.51 C158.47 88.09, 153.19 76.14, 157.53 76.42 M1.04 0.41 C22.92 13.47, 104.36 63.76, 130.85 76.66 C157.34 89.56, 155.41 78.09, 159.97 77.82" stroke="#1e1e1e" stroke-width="2" fill="none"></path></g><g transform="translate(258.3085104166662 930.4557291666666) rotate(0 79.60527062389068 41.59291073558853)"><path d="M152.58 88.36 C155.55 84.91, 155.77 81.67, 159.97 77.82 M152.58 88.36 C155.11 84.84, 156.67 81.74, 159.97 77.82" stroke="#1e1e1e" stroke-width="2" fill="none"></path></g><g transform="translate(258.3085104166662 930.4557291666666) rotate(0 79.60527062389068 41.59291073558853)"><path d="M147.53 81.14 C151.96 79.72, 153.58 78.47, 159.97 77.82 M147.53 81.14 C151.63 79.85, 154.78 79.01, 159.97 77.82" stroke="#1e1e1e" stroke-width="2" fill="none"></path></g></g><mask></mask><g stroke-linecap="round"><g transform="translate(235.39151041666616 930.4557291666666) rotate(0 87.16108836967345 96.11222289933835)"><path d="M-0.55 -0.74 C25.36 28.92, 125.52 148.85, 154.69 178.92 C183.86 208.98, 171.08 179.73, 174.48 179.66 M1.36 1.49 C27.71 31.28, 128.25 151.16, 156.95 180.54 C185.66 209.93, 170.48 177.98, 173.57 177.79" stroke="#1e1e1e" stroke-width="2" fill="none"></path></g><g transform="translate(235.39151041666616 930.4557291666666) rotate(0 87.16108836967345 96.11222289933835)"><path d="M177.52 186.54 C175.93 183.77, 175.72 182.17, 173.57 177.79 M177.52 186.54 C175.59 183.28, 174.26 179.8, 173.57 177.79" stroke="#1e1e1e" stroke-width="2" fill="none"></path></g><g transform="translate(235.39151041666616 930.4557291666666) rotate(0 87.16108836967345 96.11222289933835)"><path d="M170.98 187.03 C170.92 184.17, 172.26 182.46, 173.57 177.79 M170.98 187.03 C171.5 183.61, 172.63 179.94, 173.57 177.79" stroke="#1e1e1e" stroke-width="2" fill="none"></path></g></g><mask></mask><g stroke-linecap="round"><g transform="translate(958.5358229166662 365.4557291666667) rotate(0 87.52835342967336 -96.05192819122533)"><path d="M-0.86 0.17 C25.22 -29.35, 126.48 -147.97, 155.92 -177.84 C185.35 -207.71, 172.67 -178.91, 175.73 -179.04 M0.89 -0.79 C26.83 -30.57, 125.78 -149.97, 154.82 -179.49 C183.87 -209, 171.95 -178.21, 175.15 -177.88" stroke="#1e1e1e" stroke-width="2" fill="none"></path></g><g transform="translate(958.5358229166662 365.4557291666667) rotate(0 87.52835342967336 -96.05192819122533)"><path d="M171.41 -186.72 C172.44 -184.67, 173.98 -181.92, 175.15 -177.88 M171.41 -186.72 C172.09 -184.45, 173.52 -182.29, 175.15 -177.88" stroke="#1e1e1e" stroke-width="2" fill="none"></path></g><g transform="translate(958.5358229166662 365.4557291666667) rotate(0 87.52835342967336 -96.05192819122533)"><path d="M177.97 -187.06 C177.33 -184.96, 177.2 -182.14, 175.15 -177.88 M177.97 -187.06 C176.84 -184.69, 176.46 -182.43, 175.15 -177.88" stroke="#1e1e1e" stroke-width="2" fill="none"></path></g></g><mask></mask><g stroke-linecap="round"><g transform="translate(981.5468229166662 365.4557291666667) rotate(0 76.68659527551938 -40.62127984693282)"><path d="M-0.27 0.91 C22.12 -11.88, 108.26 -63.7, 133.52 -76.54 C158.79 -89.39, 148.28 -76.14, 151.31 -76.16 M1.78 0.34 C24.13 -12.28, 107.45 -62.64, 132.76 -75.16 C158.07 -87.68, 150.51 -74.7, 153.65 -74.79" stroke="#1e1e1e" stroke-width="2" fill="none"></path></g><g transform="translate(981.5468229166662 365.4557291666667) rotate(0 76.68659527551938 -40.62127984693282)"><path d="M146.87 -81.6 C149.16 -79.75, 149.74 -79.33, 153.65 -74.79 M146.87 -81.6 C149.05 -79.92, 151.16 -77.34, 153.65 -74.79" stroke="#1e1e1e" stroke-width="2" fill="none"></path></g><g transform="translate(981.5468229166662 365.4557291666667) rotate(0 76.68659527551938 -40.62127984693282)"><path d="M152.83 -84.36 C153.76 -81.9, 152.98 -80.84, 153.65 -74.79 M152.83 -84.36 C153.16 -81.85, 153.44 -78.43, 153.65 -74.79" stroke="#1e1e1e" stroke-width="2" fill="none"></path></g></g><mask></mask><g stroke-linecap="round"><g transform="translate(1090.2248229166662 391.7057291666667) rotate(0 21.88487303810649 0.041421718988914336)"><path d="M0.16 -0.13 C7.38 -0.2, 36.01 0.05, 43.21 0.04 M-0.42 -0.68 C6.97 -0.68, 36.98 0.6, 44.19 0.76" stroke="#1e1e1e" stroke-width="2" fill="none"></path></g><g transform="translate(1090.2248229166662 391.7057291666667) rotate(0 21.88487303810649 0.041421718988914336)"><path d="M23.42 7.54 C28.91 4.74, 34.99 3.19, 44.19 0.76 M23.42 7.54 C29.12 5.88, 34.99 3.65, 44.19 0.76" stroke="#1e1e1e" stroke-width="2" fill="none"></path></g><g transform="translate(1090.2248229166662 391.7057291666667) rotate(0 21.88487303810649 0.041421718988914336)"><path d="M23.93 -7.4 C29.33 -6.05, 35.27 -3.47, 44.19 0.76 M23.93 -7.4 C29.51 -5.08, 35.24 -3.32, 44.19 0.76" stroke="#1e1e1e" stroke-width="2" fill="none"></path></g></g><mask></mask><g stroke-linecap="round"><g transform="translate(981.5468229166662 417.9557291666667) rotate(0 75.81522484304003 40.81777829504935)"><path d="M-1.07 0.09 C20.96 12.78, 106.87 63.34, 132.5 75.85 C158.13 88.36, 149.32 75.07, 152.7 75.16 M0.57 -0.91 C22.96 11.98, 109.6 64.38, 134.86 77.18 C160.11 89.98, 149.04 75.84, 152.1 75.9" stroke="#1e1e1e" stroke-width="2" fill="none"></path></g><g transform="translate(981.5468229166662 417.9557291666667) rotate(0 75.81522484304003 40.81777829504935)"><path d="M154.35 85.24 C153.7 81.61, 152.57 79.33, 152.1 75.9 M154.35 85.24 C154.32 82.93, 153.44 81.57, 152.1 75.9" stroke="#1e1e1e" stroke-width="2" fill="none"></path></g><g transform="translate(981.5468229166662 417.9557291666667) rotate(0 75.81522484304003 40.81777829504935)"><path d="M147.82 84.5 C149.32 81.17, 150.34 79.14, 152.1 75.9 M147.82 84.5 C149.16 82.34, 149.64 81.14, 152.1 75.9" stroke="#1e1e1e" stroke-width="2" fill="none"></path></g></g><mask></mask><g stroke-linecap="round"><g transform="translate(958.5358229166662 417.9557291666667) rotate(0 87.68898211713156 95.44260905754851)"><path d="M-0.68 -0.4 C25.58 29.2, 127.1 147.78, 156.51 177.66 C185.92 207.54, 172.44 178.84, 175.79 178.87 M1.17 -1.65 C27.39 28.04, 126.72 148.3, 155.73 178.62 C184.74 208.94, 172.22 180.28, 175.23 180.26" stroke="#1e1e1e" stroke-width="2" fill="none"></path></g><g transform="translate(958.5358229166662 417.9557291666667) rotate(0 87.68898211713156 95.44260905754851)"><path d="M178.42 189.31 C177.42 187.64, 176.19 185.79, 175.23 180.26 M178.42 189.31 C177.4 186.71, 175.91 184.02, 175.23 180.26" stroke="#1e1e1e" stroke-width="2" fill="none"></path></g><g transform="translate(958.5358229166662 417.9557291666667) rotate(0 87.68898211713156 95.44260905754851)"><path d="M171.85 189.24 C172.24 187.62, 172.4 185.78, 175.23 180.26 M171.85 189.24 C172.87 186.71, 173.42 184.04, 175.23 180.26" stroke="#1e1e1e" stroke-width="2" fill="none"></path></g></g><mask></mask><g stroke-linecap="round"><g transform="translate(958.5358229166662 877.9557291666666) rotate(0 87.83198112652889 -95.59478159076644)"><path d="M0.32 -1.09 C26.53 -30.8, 127.21 -148.87, 156.59 -178.63 C185.96 -208.39, 173.41 -179.72, 176.57 -179.64 M-0.97 0.95 C25.17 -28.5, 126.28 -147.07, 155.85 -177.02 C185.41 -206.98, 173.09 -178.23, 176.43 -178.79" stroke="#1e1e1e" stroke-width="2" fill="none"></path></g><g transform="translate(958.5358229166662 877.9557291666666) rotate(0 87.83198112652889 -95.59478159076644)"><path d="M172.56 -187.58 C172.6 -185.13, 174.52 -182.36, 176.43 -178.79 M172.56 -187.58 C173.01 -185.27, 174.57 -183.41, 176.43 -178.79" stroke="#1e1e1e" stroke-width="2" fill="none"></path></g><g transform="translate(958.5358229166662 877.9557291666666) rotate(0 87.83198112652889 -95.59478159076644)"><path d="M179.12 -188.01 C177.56 -185.44, 177.88 -182.57, 176.43 -178.79 M179.12 -188.01 C178.08 -185.57, 178.17 -183.61, 176.43 -178.79" stroke="#1e1e1e" stroke-width="2" fill="none"></path></g></g><mask></mask><g stroke-linecap="round"><g transform="translate(981.5468229166662 877.9557291666666) rotate(0 75.83783047136473 -41.1660479224974)"><path d="M0.4 0.12 C22.74 -12.55, 109.01 -64.51, 134.36 -77.14 C159.72 -89.77, 149.71 -75.96, 152.53 -75.66 M-0.85 -0.86 C21.4 -13.31, 108.59 -63.27, 134.04 -76.07 C159.49 -88.88, 149.03 -77.46, 151.84 -77.69" stroke="#1e1e1e" stroke-width="2" fill="none"></path></g><g transform="translate(981.5468229166662 877.9557291666666) rotate(0 75.83783047136473 -41.1660479224974)"><path d="M147.33 -86.17 C148.82 -82.47, 149.49 -80.53, 151.84 -77.69 M147.33 -86.17 C149.08 -83.02, 150.11 -80.59, 151.84 -77.69" stroke="#1e1e1e" stroke-width="2" fill="none"></path></g><g transform="translate(981.5468229166662 877.9557291666666) rotate(0 75.83783047136473 -41.1660479224974)"><path d="M153.83 -87.09 C153.19 -83.06, 151.73 -80.82, 151.84 -77.69 M153.83 -87.09 C153.3 -83.57, 152.06 -80.82, 151.84 -77.69" stroke="#1e1e1e" stroke-width="2" fill="none"></path></g></g><mask></mask><g stroke-linecap="round"><g transform="translate(1090.2248229166662 904.2057291666666) rotate(0 21.96385293591527 0.006642160839419375)"><path d="M0.54 -0.41 C7.81 -0.37, 36.66 0.14, 43.77 0.27 M0.16 0.57 C7.34 0.44, 36.03 -0.39, 43.37 -0.56" stroke="#1e1e1e" stroke-width="2" fill="none"></path></g><g transform="translate(1090.2248229166662 904.2057291666666) rotate(0 21.96385293591527 0.006642160839419375)"><path d="M23.04 7.45 C29.07 4.81, 37.07 1.09, 43.37 -0.56 M23.04 7.45 C30.3 4.1, 38.56 1.86, 43.37 -0.56" stroke="#1e1e1e" stroke-width="2" fill="none"></path></g><g transform="translate(1090.2248229166662 904.2057291666666) rotate(0 21.96385293591527 0.006642160839419375)"><path d="M22.65 -7.49 C28.81 -5.16, 36.95 -3.9, 43.37 -0.56 M22.65 -7.49 C30.09 -5.27, 38.5 -1.93, 43.37 -0.56" stroke="#1e1e1e" stroke-width="2" fill="none"></path></g></g><mask></mask><g stroke-linecap="round"><g transform="translate(981.5468229166662 930.4557291666666) rotate(0 75.88658668067865 41.3015294086789)"><path d="M0.15 0.59 C21.97 13.59, 106.6 64.42, 132.07 77.12 C157.55 89.83, 149.74 77.08, 153 76.81 M-1.23 -0.15 C20.84 12.61, 108.57 62.98, 134.2 75.46 C159.83 87.95, 149.68 74.64, 152.56 74.76" stroke="#1e1e1e" stroke-width="2" fill="none"></path></g><g transform="translate(981.5468229166662 930.4557291666666) rotate(0 75.88658668067865 41.3015294086789)"><path d="M154.38 84.19 C154.2 79.55, 153.7 77.17, 152.56 74.76 M154.38 84.19 C154.17 81.32, 153.56 77.52, 152.56 74.76" stroke="#1e1e1e" stroke-width="2" fill="none"></path></g><g transform="translate(981.5468229166662 930.4557291666666) rotate(0 75.88658668067865 41.3015294086789)"><path d="M147.9 83.15 C150.29 78.91, 152.38 76.95, 152.56 74.76 M147.9 83.15 C149.93 80.69, 151.57 77.24, 152.56 74.76" stroke="#1e1e1e" stroke-width="2" fill="none"></path></g></g><mask></mask><g stroke-linecap="round"><g transform="translate(958.5358229166662 930.4557291666666) rotate(0 88.02332433640765 96.18450833066868)"><path d="M-1.11 0.87 C25 30.66, 127.52 149.79, 156.81 179.31 C186.1 208.83, 171.4 177.91, 174.65 177.99 M0.51 0.29 C26.51 29.67, 126.75 147.71, 156.19 177.48 C185.63 207.25, 173.68 178.86, 177.15 178.91" stroke="#1e1e1e" stroke-width="2" fill="none"></path></g><g transform="translate(958.5358229166662 930.4557291666666) rotate(0 88.02332433640765 96.18450833066868)"><path d="M179.58 188.2 C179.48 185.77, 178.47 181.78, 177.15 178.91 M179.58 188.2 C179.32 185.9, 178.66 184.17, 177.15 178.91" stroke="#1e1e1e" stroke-width="2" fill="none"></path></g><g transform="translate(958.5358229166662 930.4557291666666) rotate(0 88.02332433640765 96.18450833066868)"><path d="M173.05 187.59 C174.99 185.42, 176.02 181.61, 177.15 178.91 M173.05 187.59 C174.34 185.37, 175.23 183.79, 177.15 178.91" stroke="#1e1e1e" stroke-width="2" fill="none"></path></g></g><mask></mask><g stroke-linecap="round"><g transform="translate(1819.5292008928568 607.5920758928571) rotate(0 22.094261385374693 -0.045877310211096756)"><path d="M0.29 0.26 C7.6 0.13, 36.06 -0.38, 43.36 -0.35 M-0.23 -0.09 C7.3 -0.18, 37.05 0.22, 44.42 0.17" stroke="#1e1e1e" stroke-width="2" fill="none"></path></g><g transform="translate(1819.5292008928568 607.5920758928571) rotate(0 22.094261385374693 -0.045877310211096756)"><path d="M23.85 7.55 C28.56 5.35, 31.74 5.19, 44.42 0.17 M23.85 7.55 C32.09 5.09, 39.36 1.93, 44.42 0.17" stroke="#1e1e1e" stroke-width="2" fill="none"></path></g><g transform="translate(1819.5292008928568 607.5920758928571) rotate(0 22.094261385374693 -0.045877310211096756)"><path d="M23.92 -7.4 C28.68 -6.5, 31.84 -3.55, 44.42 0.17 M23.92 -7.4 C32.19 -4.08, 39.43 -1.46, 44.42 0.17" stroke="#1e1e1e" stroke-width="2" fill="none"></path></g></g><mask></mask><g stroke-linecap="round" transform="translate(10 95.93098958333337) rotate(0 1081.30859375 551.9335937499999)"><path d="M32 0 C843.44 7.68, 1653.67 8.7, 2130.62 0 M32 0 C653.69 -5.33, 1276.27 -5.79, 2130.62 0 M2130.62 0 C2152.86 -1.52, 2161.6 10.02, 2162.62 32 M2130.62 0 C2150.69 1.44, 2163.75 11.29, 2162.62 32 M2162.62 32 C2163.09 286.44, 2163.43 540.65, 2162.62 1071.87 M2162.62 32 C2165.37 355.43, 2165.7 677.91, 2162.62 1071.87 M2162.62 1071.87 C2162.48 1091.71, 2151.94 1103.07, 2130.62 1103.87 M2162.62 1071.87 C2163.95 1095.22, 2151.82 1103.42, 2130.62 1103.87 M2130.62 1103.87 C1504.81 1104.88, 879.86 1105.07, 32 1103.87 M2130.62 1103.87 C1325.29 1099.57, 519.43 1099.71, 32 1103.87 M32 1103.87 C10.76 1104.44, -0.4 1094.69, 0 1071.87 M32 1103.87 C12.95 1105.63, -0.82 1094.27, 0 1071.87 M0 1071.87 C2.66 827.35, 2.38 582.27, 0 32 M0 1071.87 C1.6 842.96, 1.38 613.51, 0 32 M0 32 C0.25 10.74, 12.41 1.34, 32 0 M0 32 C1.22 10.68, 9.55 -1.4, 32 0" stroke="#1e1e1e" stroke-width="2" fill="none"></path></g><g transform="translate(905.6184895833326 10) rotate(0 168.2787148197491 31.813151041666657)"><text x="0" y="44.58931249999998" font-family="Virgil, Segoe UI Emoji" font-size="50.90104166666664px" fill="#1e1e1e" text-anchor="start" style="white-space: pre;" direction="ltr" dominant-baseline="alphabetic">The0xTenant</text></g></svg>